<svg xmlns="http://www.w3.org/2000/svg" width="1600" height="980" viewBox="0 0 1600 980" role="img" aria-labelledby="title desc">
  <title id="title">Hardware Power and IO Overview</title>
  <desc id="desc">Public-facing block diagram summarizing the robot power path and control signal path.</desc>
  <defs>
    <style>
      .bg { fill: #f5f7fb; }
      .sheet { fill: #ffffff; stroke: #d8e1ee; stroke-width: 2; }
      .panel { fill: #fbfdff; stroke: #dce6f2; stroke-width: 2; }
      .title { font: 700 44px 'Segoe UI', Arial, sans-serif; fill: #0f172a; }
      .subtitle { font: 400 20px 'Segoe UI', Arial, sans-serif; fill: #475569; }
      .panelTitle { font: 700 25px 'Segoe UI', Arial, sans-serif; fill: #0f172a; }
      .tag { font: 700 15px 'Segoe UI', Arial, sans-serif; fill: #34506d; letter-spacing: 1.4px; }
      .label { font: 700 28px 'Segoe UI', Arial, sans-serif; fill: #0f172a; }
      .small { font: 400 17px 'Segoe UI', Arial, sans-serif; fill: #475569; }
      .note { font: 500 18px 'Segoe UI', Arial, sans-serif; fill: #64748b; }
      .boxControl { fill: #eefaf8; stroke: #0f766e; stroke-width: 3; }
      .boxPower { fill: #fff7ed; stroke: #ea580c; stroke-width: 3; }
      .boxHybrid { fill: #f5f3ff; stroke: #7c3aed; stroke-width: 3; }
      .boxNeutral { fill: #f8fafc; stroke: #64748b; stroke-width: 3; }
      .signal { fill: none; stroke: #0f766e; stroke-width: 4; stroke-linecap: round; stroke-linejoin: round; marker-end: url(#signalArrow); }
      .power { fill: none; stroke: #ea580c; stroke-width: 4; stroke-linecap: round; stroke-linejoin: round; marker-end: url(#powerArrow); }
      .powerLink { fill: none; stroke: #ea580c; stroke-width: 4; stroke-linecap: round; stroke-linejoin: round; }
      .inferred { fill: none; stroke: #64748b; stroke-width: 3; stroke-linecap: round; stroke-linejoin: round; stroke-dasharray: 10 9; marker-end: url(#inferredArrow); }
      .legend { font: 600 17px 'Segoe UI', Arial, sans-serif; fill: #334155; }
    </style>
    <marker id="signalArrow" markerWidth="10" markerHeight="10" refX="8" refY="5" orient="auto">
      <path d="M0,0 L10,5 L0,10 z" fill="#0f766e"/>
    </marker>
    <marker id="powerArrow" markerWidth="10" markerHeight="10" refX="8" refY="5" orient="auto">
      <path d="M0,0 L10,5 L0,10 z" fill="#ea580c"/>
    </marker>
    <marker id="inferredArrow" markerWidth="10" markerHeight="10" refX="8" refY="5" orient="auto">
      <path d="M0,0 L10,5 L0,10 z" fill="#64748b"/>
    </marker>
  </defs>

  <rect class="bg" x="0" y="0" width="1600" height="980"/>
  <rect class="sheet" x="36" y="36" width="1528" height="908" rx="28"/>

  <text class="title" x="76" y="96">Hardware Power and IO Overview</text>
  <text class="subtitle" x="76" y="130">Clean redraw from recovered wiring material. This is a system-level view, not a pin-level schematic.</text>

  <g transform="translate(1210 78)">
    <line class="power" x1="0" y1="0" x2="70" y2="0"/>
    <text class="legend" x="88" y="6">power path</text>
    <line class="signal" x1="0" y1="34" x2="70" y2="34"/>
    <text class="legend" x="88" y="40">control / signal</text>
    <line class="inferred" x1="0" y1="68" x2="70" y2="68"/>
    <text class="legend" x="88" y="74">interpreted link</text>
  </g>

  <rect class="panel" x="76" y="184" width="690" height="610" rx="24"/>
  <rect class="panel" x="834" y="184" width="690" height="610" rx="24"/>
  <rect class="panel" x="76" y="826" width="1448" height="76" rx="22"/>

  <text class="tag" x="112" y="228">CONTROL / SIGNAL</text>
  <text class="panelTitle" x="112" y="266">Physical control chain</text>
  <text class="small" x="112" y="294">Arduino combines IMU and RC input, then commands the motor controller.</text>

  <text class="tag" x="870" y="228">POWER DISTRIBUTION</text>
  <text class="panelTitle" x="870" y="266">Battery and conversion chain</text>
  <text class="small" x="870" y="294">36V main power is stepped down for onboard compute and low-voltage auxiliaries.</text>

  <rect class="boxControl" x="116" y="350" width="220" height="88" rx="18"/>
  <text class="label" x="226" y="386" text-anchor="middle">RC Receiver</text>
  <text class="small" x="226" y="415" text-anchor="middle">PWM input</text>

  <rect class="boxControl" x="116" y="490" width="220" height="88" rx="18"/>
  <text class="label" x="226" y="526" text-anchor="middle">BNO055 IMU</text>
  <text class="small" x="226" y="555" text-anchor="middle">angle + gyro feedback</text>

  <rect class="boxControl" x="428" y="420" width="260" height="104" rx="18"/>
  <text class="label" x="558" y="462" text-anchor="middle">Arduino Mega</text>
  <text class="small" x="558" y="493" text-anchor="middle">balancing + RC logic</text>

  <rect class="boxHybrid" x="428" y="612" width="260" height="100" rx="18"/>
  <text class="label" x="558" y="652" text-anchor="middle">ODrive 3.6</text>
  <text class="small" x="558" y="683" text-anchor="middle">current motor control</text>

  <rect class="boxControl" x="116" y="616" width="220" height="96" rx="18"/>
  <text class="label" x="226" y="655" text-anchor="middle">Wheel Motors</text>
  <text class="small" x="226" y="686" text-anchor="middle">hall sensor evidence</text>

  <rect class="boxNeutral" x="428" y="328" width="260" height="70" rx="18"/>
  <text class="label" x="558" y="372" text-anchor="middle">Aux IO Area</text>

  <path class="signal" d="M336 394 L428 456"/>
  <path class="signal" d="M336 534 L428 488"/>
  <path class="signal" d="M558 524 L558 612"/>
  <path class="signal" d="M428 662 L336 662"/>
  <path class="inferred" d="M336 636 L428 636"/>
  <path class="inferred" d="M558 398 L558 420"/>

  <rect class="boxPower" x="1038" y="338" width="282" height="88" rx="18"/>
  <text class="label" x="1179" y="375" text-anchor="middle">36V Battery</text>
  <text class="small" x="1179" y="404" text-anchor="middle">main source</text>

  <rect class="boxPower" x="966" y="476" width="426" height="72" rx="18"/>
  <text class="label" x="1179" y="522" text-anchor="middle">Main 36V Bus</text>

  <rect class="boxPower" x="880" y="622" width="216" height="88" rx="18"/>
  <text class="label" x="988" y="658" text-anchor="middle">Power Switch</text>
  <text class="small" x="988" y="687" text-anchor="middle">branch in sketch</text>

  <rect class="boxPower" x="1176" y="622" width="216" height="88" rx="18"/>
  <text class="label" x="1284" y="658" text-anchor="middle">36V to 19V</text>
  <text class="small" x="1284" y="687" text-anchor="middle">DC-DC converter</text>

  <rect class="boxPower" x="880" y="746" width="216" height="88" rx="18"/>
  <text class="label" x="988" y="782" text-anchor="middle">Onboard PC</text>
  <text class="small" x="988" y="811" text-anchor="middle">compute unit</text>

  <rect class="boxPower" x="1176" y="746" width="216" height="88" rx="18"/>
  <text class="label" x="1284" y="782" text-anchor="middle">19V to 5V</text>
  <text class="small" x="1284" y="811" text-anchor="middle">low-voltage rail</text>

  <path class="power" d="M1179 426 L1179 476"/>
  <path class="power" d="M988 548 L988 622"/>
  <path class="power" d="M1284 548 L1284 622"/>
  <path class="power" d="M1284 710 L1284 746"/>
  <path class="power" d="M1176 790 L1096 790"/>
  <path class="power" d="M966 512 L724 512 L724 650 L688 650"/>

  <rect class="boxControl" x="642" y="842" width="250" height="50" rx="16"/>
  <text class="label" x="767" y="875" text-anchor="middle">Mini Arduino</text>

  <rect class="boxControl" x="946" y="842" width="250" height="50" rx="16"/>
  <text class="label" x="1071" y="875" text-anchor="middle">Relay Module</text>

  <path class="powerLink" d="M1284 834 L1284 824 L767 824 L767 842"/>
  <path class="powerLink" d="M1284 824 L1071 824 L1071 842"/>

  <text class="tag" x="112" y="858">LOW-VOLTAGE AUXILIARIES</text>
</svg>
